Coordinates
version=1
nRows=43
nColumns=12
inDegrees=yes

Units are S.I. units (second, meters, Newtons, ...)
Angles are in degrees

endheader
time	SC_y	SC_z	SC_x	AC_y	AC_z	AC_x	GH_y	GH_z	GH_yy	EL_x	PS_y
       0.0              -44.35          16.71          77.84          34.93         -17.26          12.55         -151.0           10.7          73.94          114.6          159.1
   0.02553              -44.35          16.71          77.83          34.93         -17.26          12.54         -150.9           10.7          73.91          114.5          159.1
   0.05107              -44.35          16.71          77.83          34.93         -17.26          12.54         -150.9          10.69          73.88          114.5          159.1
    0.0766              -44.35          16.71          77.83          34.94         -17.26          12.54         -150.9          10.69          73.84          114.5          159.1
    0.1021              -44.35          16.71          77.83          34.94         -17.26          12.54         -150.9          10.69          73.81          114.5          159.1
    0.1277              -44.34          16.71          77.82          34.94         -17.26          12.53         -150.8          10.68          73.77          114.5          159.1
    0.1532              -44.34          16.71          77.82          34.94         -17.26          12.53         -150.8          10.67          73.72          114.5          159.0
    0.1787              -44.34           16.7          77.82          34.94         -17.26          12.53         -150.8          10.67          73.68          114.5          159.0
    0.2043              -44.33           16.7          77.81          34.95         -17.26          12.52         -150.7          10.66          73.63          114.5          159.0
    0.2298              -44.33           16.7          77.81          34.95         -17.26          12.52         -150.7          10.66          73.58          114.5          159.0
    0.2553              -44.33           16.7          77.81          34.95         -17.26          12.51         -150.7          10.65          73.52          114.5          158.9
    0.2809              -44.32           16.7           77.8          34.95         -17.26          12.51         -150.6          10.64          73.46          114.5          158.9
    0.3064              -44.32          16.69           77.8          34.96         -17.26          12.51         -150.6          10.63           73.4          114.4          158.9
    0.3319              -44.31          16.69          77.79          34.96         -17.26           12.5         -150.5          10.62          73.33          114.4          158.8
    0.3575              -44.31          16.69          77.79          34.96         -17.27          12.49         -150.5          10.61          73.26          114.4          158.8
     0.383               -44.3          16.69          77.78          34.97         -17.27          12.49         -150.4           10.6          73.17          114.4          158.8
    0.4085               -44.3          16.68          77.77          34.97         -17.27          12.48         -150.3          10.59          73.09          114.4          158.7
    0.4341              -44.29          16.68          77.77          34.97         -17.27          12.47         -150.3          10.58          72.99          114.4          158.7
    0.4596              -44.28          16.67          77.76          34.98         -17.27          12.47         -150.2          10.56          72.88          114.3          158.6
    0.4851              -44.28          16.67          77.75          34.98         -17.27          12.46         -150.1          10.55          72.77          114.3          158.6
    0.5107              -44.27          16.66          77.74          34.99         -17.27          12.45         -150.0          10.53          72.64          114.3          158.5
    0.5362              -44.26          16.66          77.73          34.99         -17.27          12.44         -149.9          10.52           72.5          114.3          158.5
    0.5617              -44.25          16.65          77.72           35.0         -17.27          12.43         -149.8          10.49          72.35          114.2          158.4
    0.5873              -44.24          16.65           77.7          35.01         -17.27          12.41         -149.6          10.47          72.18          114.2          158.3
    0.6128              -44.22          16.64          77.69          35.02         -17.27           12.4         -149.5          10.45          71.99          114.2          158.2
    0.6384              -44.21          16.63          77.67          35.03         -17.28          12.38         -149.3          10.42          71.78          114.1          158.1
    0.6639              -44.19          16.62          77.66          35.04         -17.28          12.37         -149.2          10.39          71.54          114.1          158.0
    0.6894              -44.17          16.61          77.64          35.05         -17.28          12.35         -149.0          10.35          71.28          114.0          157.9
     0.715              -44.15           16.6          77.61          35.06         -17.28          12.32         -148.7          10.32          70.97          113.9          157.7
    0.7405              -44.13          16.59          77.59          35.08         -17.28           12.3         -148.5          10.27          70.63          113.9          157.6
     0.766              -44.11          16.57          77.56          35.09         -17.29          12.27         -148.2          10.22          70.24          113.8          157.4
    0.7916              -44.08          16.56          77.53          35.11         -17.29          12.24         -147.9          10.16           69.8          113.7          157.2
    0.8171              -44.04          16.54          77.49          35.14         -17.29           12.2         -147.5          10.09          69.28          113.6          156.9
    0.8426               -44.0          16.51          77.44          35.16          -17.3          12.15         -147.0          10.02          68.68          113.5          156.6
    0.8682              -43.95          16.49          77.39          35.19          -17.3           12.1         -146.5          9.923          67.98          113.3          156.3
    0.8937               -43.9          16.46          77.33          35.23         -17.31          12.04         -145.9          9.815          67.15          113.2          155.9
    0.9192              -43.83          16.42          77.25          35.27         -17.32          11.97         -145.1          9.686          66.16          112.9          155.5
    0.9448              -43.75          16.37          77.16          35.32         -17.33          11.88         -144.2          9.532          64.98          112.7          154.9
    0.9703              -43.66          16.32          77.06          35.39         -17.34          11.77         -143.2          9.346          63.56          112.4          154.2
    0.9958              -43.54          16.25          76.92          35.46         -17.35          11.64         -141.8          9.118          61.81          112.1          153.4
     1.021              -43.39          16.17          76.76          35.56         -17.37          11.48         -140.2          8.836          59.66          111.6          152.4
     1.047              -43.21          16.07          76.56          35.68         -17.39          11.28         -138.2          8.486          56.98          111.1          151.1
     1.072              -42.98          15.94          76.31          35.82         -17.41          11.03         -135.7          8.044          53.59          110.4          149.5
